<?xml version="1.0" encoding="iso-8859-1"?>
<!-- Generator: Adobe Illustrator 18.0.0, SVG Export Plug-In . SVG Version: 6.00 Build 0)  -->
<!DOCTYPE svg PUBLIC "-//W3C//DTD SVG 1.1//EN" "http://www.w3.org/Graphics/SVG/1.1/DTD/svg11.dtd">
<svg xmlns="http://www.w3.org/2000/svg" xmlns:xlink="http://www.w3.org/1999/xlink" version="1.1" id="Capa_1" x="0px" y="0px" viewBox="0 0 478.114 478.114" style="enable-background:new 0 0 478.114 478.114;" xml:space="preserve" width="512px" height="512px">
<g>
	<path d="M474.95,17.864c-0.295-7.979-6.703-14.386-14.688-14.69l-84.164-3.157c-4.34-0.21-8.368,1.454-11.378,4.47L150.499,218.711   c-5.964,5.964-5.964,15.631,0,21.596l87.312,87.312c2.978,2.978,6.889,4.478,10.801,4.478c3.903,0,7.815-1.5,10.795-4.478   l214.221-214.223c3.01-3.008,4.628-7.13,4.472-11.376L474.95,17.864z M248.612,295.214l-27.458-27.45l163.824-163.816   c2.978-2.978,2.978-7.809,0-10.803c-2.994-2.978-7.823-2.978-10.801,0L210.353,256.964l-27.451-27.458L381.611,30.804l63.331,2.371   l2.371,63.331L248.612,295.214z" />
	<path d="M101.438,212.855c-8.95-8.95-23.446-8.95-32.397,0c-8.958,8.958-8.958,23.462,0,32.404l52.204,52.202l-31.72,31.72H40.37   c-22.287,0-40.358,18.073-40.358,40.359l-0.008,68.206c0,10.709,4.254,20.973,11.82,28.547c7.573,7.566,17.839,11.82,28.546,11.82   l68.208-0.008c22.287,0,40.358-18.073,40.358-40.359l0.008-49.162l31.712-31.712l52.204,52.196   c4.478,4.478,10.334,6.71,16.198,6.71c5.87,0,11.726-2.231,16.205-6.71c8.95-8.952,8.95-23.454,0-32.396L101.438,212.855z    M94.664,423.835c-11.151,11.159-29.222,11.159-40.382,0c-11.159-11.151-11.159-29.23,0-40.382   c11.159-11.151,29.23-11.151,40.382,0C105.824,394.605,105.824,412.684,94.664,423.835z" />
</g>
<g>
</g>
<g>
</g>
<g>
</g>
<g>
</g>
<g>
</g>
<g>
</g>
<g>
</g>
<g>
</g>
<g>
</g>
<g>
</g>
<g>
</g>
<g>
</g>
<g>
</g>
<g>
</g>
<g>
</g>
</svg>
