<?xml version="1.0" encoding="iso-8859-1"?>
<!-- Generator: Adobe Illustrator 16.0.0, SVG Export Plug-In . SVG Version: 6.00 Build 0)  -->
<!DOCTYPE svg PUBLIC "-//W3C//DTD SVG 1.1//EN" "http://www.w3.org/Graphics/SVG/1.1/DTD/svg11.dtd">
<svg xmlns="http://www.w3.org/2000/svg" xmlns:xlink="http://www.w3.org/1999/xlink" version="1.1" id="Capa_1" x="0px" y="0px" width="512px" height="512px" viewBox="0 0 125.824 125.824" style="enable-background:new 0 0 125.824 125.824;" xml:space="preserve">
<g>
	<path d="M109.329,54.844l-11.477-7.127l-0.3-0.186l-0.651-0.061l-2.205-0.201l6.205-11.514L90.801,46.91l-8.212-0.752l-3.338-2.033   l-4.924-3.453l8.754-12.207l0.57-0.797l-0.045-0.588l-0.775-9.926L97.066,1.039L80.778,16.002l-0.229,0.227l-0.068,0.516   l-1.261,9.225L68.299,37.21l-7.622,3.695l-3.578-3.91l-2.39,2.186l-0.845-8.769l2.76-15.473l0.181-1.018l-0.518-0.568L42.552,0   l10.143,14.783l-4.298,14.871l-0.038,0.131l-0.033,0.543l-0.649,10.545l-16.372-7.908l-0.608-0.291l-0.294,0.002L10.171,32.91   l19.082,4.123l11.751,7.945l-1.816,11.381L7.231,78.449l33.245-15.617l5.811,0.355l-1.728,9.037l-13.202,3.91l12.566-0.584   l-4.457,23.317l11.513-29.401l0.927,3.342l9.16-2.539l18.613,55.555l-7.87-40.451l6.408-11.885l-7.229,7.977l-2.177-10.389   l8.907,1.832l31.744,28.166L81.052,66.443l-2.965-10.695l11.433-3.613l6.901-0.174l12.484,5.16l0.783,0.322l0.449-0.494   l8.455-9.361L109.329,54.844z M62.913,62.537l-6.858,2.938l-2.158-7.789l-6.763-0.418l-0.345-3.063l-2.917-3.417l5.39-7.994   l5.026,3.682l4.688-2.875l7.25,3.625l3.271-4.979l6.416,8.332l-5.334,4.75l2.459,11.708L62.913,62.537z" />
</g>
<g>
</g>
<g>
</g>
<g>
</g>
<g>
</g>
<g>
</g>
<g>
</g>
<g>
</g>
<g>
</g>
<g>
</g>
<g>
</g>
<g>
</g>
<g>
</g>
<g>
</g>
<g>
</g>
<g>
</g>
</svg>
