<?xml version="1.0" encoding="iso-8859-1"?>
<!-- Generator: Adobe Illustrator 19.0.0, SVG Export Plug-In . SVG Version: 6.00 Build 0)  -->
<svg xmlns="http://www.w3.org/2000/svg" xmlns:xlink="http://www.w3.org/1999/xlink" version="1.1" id="Capa_1" x="0px" y="0px" viewBox="0 0 463 463" style="enable-background:new 0 0 463 463;" xml:space="preserve" width="512px" height="512px">
<g>
	<path d="M199.5,248c-12.958,0-23.5,10.542-23.5,23.5v48c0,4.142,3.358,7.5,7.5,7.5h32c4.142,0,7.5-3.358,7.5-7.5v-48   C223,258.542,212.458,248,199.5,248z M208,312h-17v-40.5c0-4.687,3.813-8.5,8.5-8.5s8.5,3.813,8.5,8.5V312z" fill="#D80027"/>
	<path d="M287,319.5v-48c0-12.958-10.542-23.5-23.5-23.5S240,258.542,240,271.5v48c0,4.142,3.358,7.5,7.5,7.5h32   C283.642,327,287,323.643,287,319.5z M272,312h-17v-40.5c0-4.687,3.813-8.5,8.5-8.5s8.5,3.813,8.5,8.5V312z" fill="#D80027"/>
	<path d="M455.5,448H447V287.5c0-4.142-3.358-7.5-7.5-7.5h-32c-4.142,0-7.5,3.358-7.5,7.5V304h-17v-16.5c0-4.142-3.358-7.5-7.5-7.5   h-32c-4.142,0-7.5,3.358-7.5,7.5V304h-17v-80.5c0-0.169-0.014-0.334-0.025-0.5h8.525c2.802,0,5.37-1.562,6.659-4.049   c1.289-2.488,1.084-5.487-0.532-7.776L239,77.119V71h80.5c3.034,0,5.768-1.827,6.929-4.63c1.161-2.803,0.519-6.028-1.626-8.173   L306.107,39.5l18.697-18.697c2.145-2.145,2.787-5.371,1.626-8.173C325.269,9.827,322.534,8,319.5,8H239V7.5   c0-4.142-3.358-7.5-7.5-7.5S224,3.358,224,7.5v69.619l-94.627,134.056c-1.616,2.289-1.821,5.288-0.532,7.776   c1.289,2.487,3.857,4.049,6.659,4.049h8.525c-0.011,0.166-0.025,0.331-0.025,0.5V304h-17v-16.5c0-4.142-3.358-7.5-7.5-7.5h-32   c-4.142,0-7.5,3.358-7.5,7.5V304H63v-16.5c0-4.142-3.358-7.5-7.5-7.5h-32c-4.142,0-7.5,3.358-7.5,7.5V448H7.5   c-4.142,0-7.5,3.358-7.5,7.5s3.358,7.5,7.5,7.5h144h32c4.142,0,7.5-3.358,7.5-7.5v-56c0-22.332,18.168-40.5,40.5-40.5   s40.5,18.168,40.5,40.5l0,56c0,1.989,0.79,3.897,2.197,5.303c1.406,1.407,3.314,2.197,5.303,2.197H311.5h144   c4.142,0,7.5-3.358,7.5-7.5S459.643,448,455.5,448z M319,407h33v8.5c0,4.142,3.358,7.5,7.5,7.5h32c4.142,0,7.5-3.358,7.5-7.5V407   h33v41H319V407z M384,408h-17v-40.5c0-4.687,3.813-8.5,8.5-8.5c4.687,0,8.5,3.813,8.5,8.5V408z M343.5,319   c4.142,0,7.5-3.358,7.5-7.5V295h17v16.5c0,4.142,3.358,7.5,7.5,7.5h32c4.142,0,7.5-3.358,7.5-7.5V295h17v97h-33v-24.5   c0-12.958-10.542-23.5-23.5-23.5S352,354.542,352,367.5V392h-33v-73H343.5z M301.394,23l-11.197,11.197   c-2.929,2.929-2.929,7.678,0,10.606L301.394,56H239V23H301.394z M229.868,94.817c0.526,0.117,1.07,0.183,1.632,0.183   s1.106-0.066,1.632-0.183L313.026,208H149.975L229.868,94.817z M48,295v16.5c0,4.142,3.358,7.5,7.5,7.5h32   c4.142,0,7.5-3.358,7.5-7.5V295h17v16.5c0,4.142,3.358,7.5,7.5,7.5H144v73h-33v-24.5c0-12.958-10.542-23.5-23.5-23.5   S64,354.542,64,367.5V392H31v-97H48z M79,367.5c0-4.687,3.813-8.5,8.5-8.5s8.5,3.813,8.5,8.5V408H79V367.5z M31,407h33v8.5   c0,4.142,3.358,7.5,7.5,7.5h32c4.142,0,7.5-3.358,7.5-7.5V407h33v41H31V407z M159,448v-41h17v41H159z M231.5,344   c-28.058,0-51.305,20.933-54.979,48H159V223.5c0-0.169-0.014-0.334-0.025-0.5h145.051c-0.011,0.166-0.025,0.331-0.025,0.5V392   h-17.521C282.805,364.934,259.558,344,231.5,344z M287,407H304v41H287L287,407z" fill="#D80027"/>
</g>
<g>
</g>
<g>
</g>
<g>
</g>
<g>
</g>
<g>
</g>
<g>
</g>
<g>
</g>
<g>
</g>
<g>
</g>
<g>
</g>
<g>
</g>
<g>
</g>
<g>
</g>
<g>
</g>
<g>
</g>
</svg>
