<?xml version="1.0" encoding="iso-8859-1"?>
<!-- Generator: Adobe Illustrator 18.1.1, SVG Export Plug-In . SVG Version: 6.00 Build 0)  -->
<svg xmlns="http://www.w3.org/2000/svg" xmlns:xlink="http://www.w3.org/1999/xlink" version="1.1" id="Capa_1" x="0px" y="0px" viewBox="0 0 60.904 60.904" style="enable-background:new 0 0 60.904 60.904;" xml:space="preserve" width="512px" height="512px">
<g>
	<g>
		<circle cx="30.12" cy="9.762" r="4.994" />
		<path d="M54.326,23.08c-2.431-8.607-13.187-7.805-19.919-5.764c-0.902-0.661-2.067-1.107-3.471-1.228    c-1.496-0.127-3.09,0.251-4.385,0.971c-6.922-2.092-16.555-2.704-19.701,5.352c-3.116,7.976,3.973,16.36,9.903,20.647    c0.337,0.242,0.81,0.049,1.012-0.268c1.368-2.115,2.145-4.457,1.494-6.764c2.011,0.553,3.537,0.354,4.4-0.953    c-0.011,0.572-0.022,1.148-0.033,1.725c-0.002,0.1,0.005,0.191,0.008,0.289l-0.029,1.58l-0.36,8.586l-0.776,10.748    c-0.005,0.27,0.059,0.521,0.168,0.762L22.633,58.8c-0.022,1.146,1.105,2.089,2.519,2.104c1.411,0.017,2.574-0.896,2.597-2.041    l1.508-14.129l0.263-2.099l0.624,0.011l0.729,8.379l0.497,7.276c-0.007,0.315,0.081,0.612,0.23,0.884    c0.242,0.926,1.242,1.627,2.459,1.642c1.412,0.019,2.574-0.896,2.598-2.039l-0.364-10.765l-0.028-8.59l0.023-1.41    c0.004-0.051,0.014-0.099,0.016-0.146c0.014-0.713,0.026-1.428,0.041-2.141c0.264-0.299,0.512-0.619,0.745-0.951    c0.785,1.771,2.429,2.098,4.681,1.48c-0.648,2.305,0.129,4.646,1.494,6.764c0.203,0.312,0.676,0.51,1.016,0.264    C50.429,38.846,56.62,31.2,54.326,23.08z M24.861,18.412c-0.319,0.218-0.611,0.517-0.858,0.907    c-2.128,3.371-5.442,5.035-9.279,5.741c-3.75,0.69-2.157,6.394,1.573,5.708c2.749-0.503,5.286-1.512,7.502-2.995    c-0.022,1.153-0.044,2.304-0.066,3.458c-0.368-0.008-0.742,0.229-0.76,0.711c-0.015-0.646-0.172,0.436-0.108,0.662    c0.019,0.069,0.05,0.146,0.075,0.221c-0.064,1.072-0.305,2.15-1.639,2.195c-1.047,0.037-2.24-0.561-3.184-0.936    c-0.625-0.25-1.144,0.57-0.835,1.086c1.253,2.092,0.755,4.197-0.369,6.176c-5.322-4.035-10.547-10.601-8.908-17.663    c1.771-7.623,10.942-7.11,17.066-5.502C24.998,18.257,24.927,18.333,24.861,18.412z M44.118,41.578    c-1.124-1.977-1.624-4.084-0.369-6.174c0.311-0.516-0.21-1.336-0.835-1.086c-1.039,0.414-2.06,0.82-3.185,0.936    c-1.328,0.139-1.575-1.143-1.643-2.232c0.002-0.002,0.002-0.004,0.002-0.006c0.097-0.219,0.119-0.38,0.065-0.613    c-0.104-0.45-0.094-0.504-0.102-0.226c-0.033-0.95-1.457-0.956-1.479,0c-0.003,0.153,0,0.319,0.033,0.474    c0.002,0.015,0.002,0.023,0.005,0.035c-0.063,0.065-0.134,0.16-0.214,0.291c-0.002,0.002-0.004,0.006-0.006,0.008    c0.03-1.666,0.062-3.333,0.097-4.999c2.243,1.528,4.825,2.562,7.625,3.079c3.729,0.688,5.323-5.017,1.573-5.708    c-3.838-0.707-7.151-2.371-9.279-5.741c-0.148-0.236-0.316-0.435-0.493-0.606c-0.099-0.172-0.203-0.339-0.321-0.5    c6.147-1.715,14.856-2.334,17.303,4.964C55.242,30.46,49.349,37.6,44.118,41.578z"/>
		<path d="M30.234,4.269c2.723,0,5.471-0.661,5.471-2.134C35.705,0.66,32.957,0,30.234,0    c-2.724,0-5.471,0.66-5.471,2.135C24.763,3.608,27.51,4.269,30.234,4.269z M30.234,1.184c2.746,0,4.181,0.698,4.291,0.927    c-0.106,0.277-1.545,0.975-4.291,0.975s-4.182-0.697-4.291-0.926C26.052,1.882,27.488,1.184,30.234,1.184z" />
	</g>
</g>
<g>
</g>
<g>
</g>
<g>
</g>
<g>
</g>
<g>
</g>
<g>
</g>
<g>
</g>
<g>
</g>
<g>
</g>
<g>
</g>
<g>
</g>
<g>
</g>
<g>
</g>
<g>
</g>
<g>
</g>
</svg>
