<?xml version="1.0" encoding="iso-8859-1"?>
<!-- Generator: Adobe Illustrator 18.1.1, SVG Export Plug-In . SVG Version: 6.00 Build 0)  -->
<svg xmlns="http://www.w3.org/2000/svg" xmlns:xlink="http://www.w3.org/1999/xlink" version="1.1" id="Capa_1" x="0px" y="0px" viewBox="0 0 438.623 438.623" style="enable-background:new 0 0 438.623 438.623;" xml:space="preserve" width="512px" height="512px">
<g>
	<g id="Layer_5_8_">
		<g>
			<path d="M86.278,138.045c-2.823-0.423-6.479,1.14-8.123,3.473l-20.19,28.667c-1.645,2.333-3.57,6.507-4.28,9.271l-5.52,21.512     c-0.709,2.766,0.902,5.836,3.581,6.824l26.527,9.776c2.679,0.986,6.216-0.116,7.86-2.45l46.107-65.466     c1.644-2.334,0.679-4.593-2.145-5.016L86.278,138.045z" fill="#D80027"/>
			<g>
				<path d="M250.65,96.054c-33.157-8.508-79.285,8.903-81.232,9.648c-3.628,1.389-10.961,2.184-14.805,1.605L52.87,92.005      c-12.071-1.813-23.903,6.025-26.937,17.85L0.737,208.044c-3.035,11.825,3.561,24.393,15.014,28.613L99.08,267.31      c2.925,1.11,2.451,3.353,2.194,4.429c-1.416,5.934-2.178,12.119-2.178,18.486c0,44.016,35.682,79.699,79.699,79.699      c28.461,0,53.427-14.926,67.525-37.371c0.767-1.22,2.935-3.758,6.155-4.742c33.905-7.391,73.088-41.271,84.517-85.809      C353.425,177.96,314.693,112.488,250.65,96.054z M178.794,342.164c-28.638,0-51.937-23.299-51.937-51.938      s23.298-51.938,51.937-51.938c28.638,0,51.937,23.299,51.937,51.938S207.432,342.164,178.794,342.164z M313.621,236.007      c-7.74,30.158-29.283,53.039-51.652,62.631c-6.131,2.241-3.476-4.928-3.476-8.412c0-2.896-0.156-5.756-0.459-8.572      c-0.135-1.259-0.852-3.343,1.947-5.063c7.914-4.862,10.164-6.627,12.83-8.529c15.522-11.078,23.14-31.703,24.167-35.417      c9.656-34.939,0.167-49.834-11.667-60.583c-2.114-1.921-4.963-1.624-6.607,0.711l-40.551,57.576      c-2.773,4.072-4.747,1.823-5.81,0.859c-8.63-7.834-18.987-13.792-30.432-17.254c-1.571-0.476-4.657-1.158-2.256-4.854      l45.284-64.299c1.644-2.333,0.817-5.106-1.836-6.158c0,0-3.142-1.247-7.397-2.338c-13.05-3.349-43.458,4.268-43.458,4.268      c-2.77,0.693-6.381,3.172-8.025,5.506c0,0-58.205,80.767-70.085,97.597c-1.033,1.464-1.633,2.995-5.008,1.62l-76.754-28.227      c0,0-8.104-3.072-5.833-11.926c0.017-0.066,21.382-83.326,21.398-83.391c1.456-5.672,7.878-4.904,7.878-4.904l95.205,14.319      c7.922,1.19,19.537-0.071,27.009-2.929c11.304-4.307,45.307-14.285,66.62-8.816C295.809,132.55,326.748,184.849,313.621,236.007      z" fill="#D80027"/>
				<circle cx="178.795" cy="290.226" r="27.297" fill="#D80027"/>
			</g>
			<path d="M401.473,125.146c-0.503-5.73-5.555-9.955-11.29-9.469c-5.732,0.504-9.971,5.559-9.468,11.291     c2.229,25.404-27.251,35.412-28.618,35.861c-0.483,0.156-1.83,1.018-1.028,2.705c2.519,6.365,3.447,9.445,4.968,16.166     c0.468,1.51,2.035,1.102,2.591,0.924C374.937,177.408,404.429,158.832,401.473,125.146z" fill="#D80027"/>
			<path d="M393.664,68.699h-3.871c-2.481,0-4.5,2.018-4.5,4.5v21.725c0,2.482,2.019,4.5,4.5,4.5h3.871c2.481,0,4.5-2.018,4.5-4.5     V73.199C398.164,70.716,396.145,68.699,393.664,68.699z" fill="#D80027"/>
			<path d="M437.306,88.757l-2.737-2.736c-0.848-0.848-1.978-1.314-3.182-1.314s-2.334,0.467-3.182,1.314l-15.362,15.361     c-0.848,0.848-1.314,1.977-1.314,3.182s0.467,2.334,1.315,3.182l2.737,2.736c0.847,0.848,1.978,1.314,3.182,1.314     s2.334-0.467,3.183-1.314l15.363-15.361C439.061,93.365,439.061,90.511,437.306,88.757z" fill="#D80027"/>
			<path d="M355.251,86.021c-0.848-0.848-1.978-1.314-3.182-1.314s-2.334,0.467-3.182,1.314l-2.737,2.736     c-1.754,1.754-1.754,4.609,0,6.363l15.362,15.361c0.848,0.848,1.978,1.314,3.182,1.314s2.334-0.467,3.182-1.314l2.737-2.736     c0.848-0.848,1.314-1.977,1.314-3.182s-0.467-2.334-1.314-3.182L355.251,86.021z" fill="#D80027"/>
		</g>
	</g>
</g>
<g>
</g>
<g>
</g>
<g>
</g>
<g>
</g>
<g>
</g>
<g>
</g>
<g>
</g>
<g>
</g>
<g>
</g>
<g>
</g>
<g>
</g>
<g>
</g>
<g>
</g>
<g>
</g>
<g>
</g>
</svg>
