<?xml version="1.0"?>
<svg width="460" height="460" xmlns="http://www.w3.org/2000/svg" xmlns:svg="http://www.w3.org/2000/svg">
 <g>
  <title>Layer 1</title>
  <g id="svg_1">
   <path id="svg_2"  d="m215.324,240.645c0.022,-0.026 0.04,-0.055 0.062,-0.081c0.475,-0.559 0.889,-1.17 1.234,-1.825c0.039,-0.074 0.071,-0.15 0.108,-0.224c0.126,-0.255 0.243,-0.516 0.347,-0.783c0.038,-0.097 0.072,-0.194 0.107,-0.292c0.089,-0.25 0.168,-0.504 0.237,-0.764c0.029,-0.106 0.057,-0.212 0.082,-0.319c0.059,-0.255 0.105,-0.514 0.144,-0.776c0.017,-0.11 0.037,-0.218 0.05,-0.329c0.032,-0.279 0.048,-0.562 0.057,-0.847c0.003,-0.09 0.013,-0.179 0.014,-0.27c0,-0.014 0.002,-0.027 0.002,-0.041l0,-58.229c0,-5.522 -4.477,-10 -10,-10s-10,4.478 -10,10l0,43.191l-70.501,-29.569c-2.957,-1.239 -6.329,-0.987 -9.067,0.68c-2.739,1.667 -4.512,4.547 -4.768,7.742c-2.014,25.106 12.241,48.521 35.472,58.265c7.176,3.01 14.732,4.535 22.458,4.535c16.885,0 32.909,-7.313 43.962,-20.064zm-80.184,-26.167l53.137,22.286c-5.199,2.567 -10.976,3.945 -16.917,3.945c-5.056,0 -10.009,-1.002 -14.722,-2.979c-10.446,-4.381 -18.126,-12.976 -21.498,-23.252z"/>
   <path id="svg_3"  d="m242.247,234.583c0.009,0.286 0.024,0.569 0.057,0.849c0.013,0.111 0.034,0.22 0.05,0.331c0.039,0.261 0.085,0.52 0.144,0.774c0.025,0.108 0.054,0.215 0.083,0.323c0.069,0.257 0.147,0.51 0.235,0.759c0.035,0.1 0.07,0.198 0.109,0.297c0.104,0.265 0.22,0.523 0.345,0.776c0.038,0.077 0.071,0.154 0.111,0.229c0.344,0.654 0.758,1.265 1.233,1.823c0.022,0.026 0.04,0.055 0.062,0.081c11.229,12.955 27.509,20.384 44.664,20.384c7.849,0 15.525,-1.55 22.815,-4.607c23.601,-9.898 38.083,-33.686 36.036,-59.192c-0.256,-3.196 -2.03,-6.075 -4.768,-7.742c-2.739,-1.666 -6.112,-1.919 -9.067,-0.68l-72.124,30.25l0,-43.372c0,-5.522 -4.477,-10 -10,-10s-10,4.478 -10,10l0,58.41c0,0.014 0.002,0.028 0.002,0.042c0,0.088 0.011,0.177 0.013,0.265zm84.321,-20.642c-3.385,10.703 -11.313,19.673 -22.149,24.217c-4.828,2.024 -9.901,3.051 -15.08,3.051c-6.228,0 -12.28,-1.479 -17.702,-4.229l54.931,-23.039z"/>
   <path id="svg_4"  d="m399.479,291.243c10.047,-30.656 16.44,-61.31 16.44,-87.039c0,-58.064 -20.054,-110.817 -56.467,-148.542c-17.117,-17.733 -37.112,-31.592 -59.429,-41.189c-22.33,-9.604 -45.888,-14.473 -70.023,-14.473s-47.693,4.869 -70.022,14.473c-22.317,9.598 -42.313,23.456 -59.429,41.189c-36.414,37.725 -56.467,90.478 -56.467,148.542c0,25.727 6.391,56.377 16.437,87.032c0.128,0.529 0.298,1.045 0.51,1.545c15.885,47.888 40.582,95.581 63.683,124.32c21.593,26.862 60.953,42.899 105.288,42.899s83.695,-16.037 105.289,-42.898c23.102,-28.74 47.799,-76.436 63.684,-124.325c0.209,-0.497 0.378,-1.009 0.506,-1.534zm-259.18,113.327c-18.421,-22.916 -37.957,-59.056 -52.639,-96.978l39.473,17.565l22.37,88.885c-3.339,-2.878 -6.433,-6.024 -9.204,-9.472zm33.58,24.385l-28.538,-113.395c-0.75,-2.979 -2.826,-5.447 -5.632,-6.695l-61.229,-27.249c-8.835,-27.692 -14.398,-54.956 -14.398,-77.412c0,-119.644 85.485,-184.204 165.918,-184.204s165.918,64.56 165.918,184.204c0,22.456 -5.563,49.72 -14.398,77.413l-61.229,27.247c-2.806,1.249 -4.883,3.718 -5.632,6.696l-28.538,113.395c-18.281,7.857 -38.823,11.045 -56.121,11.045c-17.297,0 -37.84,-3.187 -56.121,-11.045zm145.822,-24.385c-2.771,3.447 -5.865,6.594 -9.203,9.472l22.369,-88.884l39.472,-17.564c-14.682,37.922 -34.217,74.06 -52.638,96.976z"/>
   <path id="svg_5"  d="m208.27,272.314l-6,25.299c-1.274,5.374 2.048,10.764 7.422,12.038c0.776,0.184 1.552,0.271 2.316,0.271c4.528,0 8.631,-3.097 9.722,-7.694l6,-25.299c1.274,-5.374 -2.048,-10.764 -7.422,-12.038c-5.371,-1.27 -10.763,2.049 -12.038,7.423z"/>
   <path id="svg_6"  d="m238.27,302.229c1.09,4.598 5.193,7.694 9.722,7.694c0.764,0 1.54,-0.088 2.316,-0.271c5.374,-1.274 8.697,-6.664 7.422,-12.038l-6,-25.299c-1.274,-5.373 -6.662,-8.696 -12.038,-7.423c-5.374,1.274 -8.697,6.664 -7.422,12.038l6,25.299z"/>
   <path id="svg_7"  d="m281,370.924c5.523,0 10,-4.478 10,-10s-4.477,-10 -10,-10l-3.5,0l0,-2.459c0,-5.522 -4.477,-10 -10,-10s-10,4.478 -10,10l0,2.459l-17.5,0l0,-2.459c0,-5.522 -4.477,-10 -10,-10s-10,4.478 -10,10l0,2.459l-17.5,0l0,-2.459c0,-5.522 -4.477,-10 -10,-10s-10,4.478 -10,10l0,2.459l-3.5,0c-5.523,0 -10,4.478 -10,10s4.477,10 10,10l3.5,0l0,2.458c0,5.522 4.477,10 10,10s10,-4.478 10,-10l0,-2.458l17.5,0l0,2.458c0,5.522 4.477,10 10,10s10,-4.478 10,-10l0,-2.458l17.5,0l0,2.458c0,5.522 4.477,10 10,10s10,-4.478 10,-10l0,-2.458l3.5,0z"/>
  </g>
  <g id="svg_8"/>
  <g id="svg_9"/>
  <g id="svg_10"/>
  <g id="svg_11"/>
  <g id="svg_12"/>
  <g id="svg_13"/>
  <g id="svg_14"/>
  <g id="svg_15"/>
  <g id="svg_16"/>
  <g id="svg_17"/>
  <g id="svg_18"/>
  <g id="svg_19"/>
  <g id="svg_20"/>
  <g id="svg_21"/>
  <g id="svg_22"/>
  <line stroke="#000000" id="svg_24" y2="444" x2="434" y1="20" x1="15" stroke-linecap="null" stroke-linejoin="null" stroke-dasharray="null" stroke-width="30" fill="none"/>
  <line id="svg_25" y2="19" x2="432" y1="446" x1="10" stroke-linecap="null" stroke-linejoin="null" stroke-dasharray="null" stroke-width="30" stroke="#000000" fill="none"/>
 </g>
</svg>