<?xml version="1.0" encoding="iso-8859-1"?>
<!-- Generator: Adobe Illustrator 18.1.1, SVG Export Plug-In . SVG Version: 6.00 Build 0)  -->
<svg xmlns="http://www.w3.org/2000/svg" xmlns:xlink="http://www.w3.org/1999/xlink" version="1.1" id="Capa_1" x="0px" y="0px" viewBox="0 0 19.502 19.502" style="enable-background:new 0 0 19.502 19.502;" xml:space="preserve" width="512px" height="512px">
<g>
	<path d="M12.569,18.744L12.121,3.777l-0.31-0.472l0.221-0.486v-2.29H11.71v0.568l-0.226,0.005c-0.12,0.119-0.225,0.271-0.246,0.461   c-0.065,0.527,0.017,1.132-0.034,1.148c-0.049,0.012-0.18,0.287-0.147,0.369c0.032,0.078-0.018,0.184,0.032,0.262   c0.05,0.08,0.214,0.119,0.147,0.225c-0.063,0.105-0.196,0.158-0.375,0.091c-0.181-0.066-0.278-0.027-0.427,0.041   c-0.081,0.035-0.148,0.1-0.22,0.146V3.281h0.032V0h-0.2v2.688L9.778,2.604H9.723L9.456,2.688V0h-0.2v3.281h0.032v0.563   C9.219,3.798,9.15,3.733,9.066,3.698C8.919,3.631,8.821,3.592,8.64,3.658C8.46,3.724,8.329,3.672,8.265,3.566   C8.198,3.461,8.362,3.422,8.413,3.342c0.047-0.078,0-0.184,0.031-0.262c0.03-0.082-0.098-0.357-0.147-0.369   C8.247,2.695,8.329,2.09,8.265,1.562C8.24,1.373,8.139,1.221,8.019,1.102L7.792,1.098V0.529H7.469v2.289L7.69,3.304L7.383,3.777   L6.934,18.744H6.473v0.758h6.555v-0.758H12.569z M10.299,4.912h0.808V5.74l-0.808-0.322V4.912z M10.285,6.479h0.82v9.771   c-0.247-0.021-0.522-0.037-0.82-0.045V6.479z M8.397,4.912h0.808v0.506L8.397,5.74V4.912z M8.395,6.479h0.82v9.727   c-0.297,0.008-0.572,0.025-0.82,0.045C8.396,16.251,8.396,6.479,8.395,6.479z" fill="#006DF0"/>
</g>
<g>
</g>
<g>
</g>
<g>
</g>
<g>
</g>
<g>
</g>
<g>
</g>
<g>
</g>
<g>
</g>
<g>
</g>
<g>
</g>
<g>
</g>
<g>
</g>
<g>
</g>
<g>
</g>
<g>
</g>
</svg>
