<?xml version="1.0" encoding="iso-8859-1"?>
<!-- Generator: Adobe Illustrator 17.1.0, SVG Export Plug-In . SVG Version: 6.00 Build 0)  -->
<!DOCTYPE svg PUBLIC "-//W3C//DTD SVG 1.1//EN" "http://www.w3.org/Graphics/SVG/1.1/DTD/svg11.dtd">
<svg xmlns="http://www.w3.org/2000/svg" xmlns:xlink="http://www.w3.org/1999/xlink" version="1.1" id="Capa_1" x="0px" y="0px" viewBox="0 0 437.125 437.125" style="enable-background:new 0 0 437.125 437.125;" xml:space="preserve" width="512px" height="512px">
<path d="M310.495,35.077C291.108,12.463,265.134,0.006,237.355,0c-6.206,0.002-11.753,3.709-14.132,9.445  c-2.377,5.732-1.075,12.275,3.317,16.669c13.409,13.409,13.396,35.241-0.029,48.667c-1.145,1.144-6.238,4.297-28.675,9.561V46.666  c0-16.468-13.397-29.865-29.865-29.865s-29.866,13.397-29.866,29.865v49.378c-17.827,3.208-27.406,5-30.595,6.367  c-6.201,2.659-10.058,8.159-10.065,14.364c0.006,6.188,3.861,11.688,10.062,14.354c3.201,1.375,12.783,3.123,30.599,6.237V407.26  c0,16.468,13.398,29.865,29.866,29.865s29.865-13.397,29.865-29.865V148.749c23.111,5.307,27.788,8.533,28.68,9.423  c13.361,13.361,13.365,35.934,0.009,49.29c-4.394,4.395-5.692,10.941-3.313,16.674c2.376,5.737,7.925,9.444,14.135,9.444  c24.861,0,48.816-10.265,67.452-28.902c22.176-22.175,34.889-54.204,34.88-87.875C339.673,86.033,329.309,57.009,310.495,35.077z" />
<g>
</g>
<g>
</g>
<g>
</g>
<g>
</g>
<g>
</g>
<g>
</g>
<g>
</g>
<g>
</g>
<g>
</g>
<g>
</g>
<g>
</g>
<g>
</g>
<g>
</g>
<g>
</g>
<g>
</g>
</svg>
