<?xml version="1.0"?>
<svg width="833.6999999999999" height="833.6999999999999" xmlns="http://www.w3.org/2000/svg" xmlns:svg="http://www.w3.org/2000/svg">
 <g>
  <title>Layer 1</title>
  <ellipse stroke="#000000" ry="102.716047" rx="101.135803" id="svg_18" cy="454.201185" cx="258.825227" stroke-width="5" fill="#ffff00"/>
  <g id="svg_1">
   <path id="svg_2" fill="#006DF0" d="m416.8,0c-208.3,0.1 -377.2,169 -377.2,377.399l0,177.801c0,9.399 4.4,18.199 11.9,23.899l162.2,123.101l0,101.5c0,16.6 13.4,30 30,30l24.1,0c16.6,0 30,-13.4 30,-30l0,-41.2c0,-10.5 8.5,-19 19,-19l0,0c10.5,0 19,8.5 19,19l0,41.2c0,16.6 13.4,30 30,30l1,0c16.6,0 30,-13.4 30,-30l0,-41.2c0,-10.5 8.5,-19 19,-19l2,0c10.5,0 19,8.5 19,19l0,41.2c0,16.6 13.4,30 30,30l1,0c16.6,0 30,-13.4 30,-30l0,-41.2c0,-10.5 8.5,-19 19,-19l0,0c10.5,0 19,8.5 19,19l0,41.2c0,16.6 13.4,30 30,30l24.2,0c16.6,0 30,-13.4 30,-30l0,-101.6l162.2,-123.1c7.5,-5.7 11.899,-14.5 11.899,-23.9l0,-177.8c-0.099,-208.3 -168.999,-377.2 -377.299,-377.3zm-157.7,558.1c-57.4,0 -104,-46.6 -104,-104c0,-57.399 46.6,-104 104,-104c57.4,0 104,46.601 104,104c0,57.5 -46.6,104 -104,104zm187.3,76.5l-59.1,0c-13.7,0 -22.4,-14.7 -15.8,-26.7l29.6,-53.699c6.8,-12.4 24.7,-12.4 31.5,0l29.601,53.699c6.5,11.999 -2.201,26.7 -15.801,26.7zm128.1,-76.5c-57.4,0 -104,-46.6 -104,-104c0,-57.399 46.6,-104 104,-104c57.399,0 104,46.601 104,104c0,57.5 -46.5,104 -104,104z"/>
  </g>
  <g id="svg_3"/>
  <g id="svg_4"/>
  <g id="svg_5"/>
  <g id="svg_6"/>
  <g id="svg_7"/>
  <g id="svg_8"/>
  <g id="svg_9"/>
  <g id="svg_10"/>
  <g id="svg_11"/>
  <g id="svg_12"/>
  <g id="svg_13"/>
  <g id="svg_14"/>
  <g id="svg_15"/>
  <g id="svg_16"/>
  <g id="svg_17"/>
  <ellipse stroke="#000000" id="svg_21" ry="102.716047" rx="101.135803" cy="454.201261" cx="572.719758" stroke-width="5" fill="#ffff00"/>
 </g>
</svg>