<?xml version="1.0" encoding="iso-8859-1"?>
<!-- Generator: Adobe Illustrator 16.0.0, SVG Export Plug-In . SVG Version: 6.00 Build 0)  -->
<!DOCTYPE svg PUBLIC "-//W3C//DTD SVG 1.1//EN" "http://www.w3.org/Graphics/SVG/1.1/DTD/svg11.dtd">
<svg xmlns="http://www.w3.org/2000/svg" xmlns:xlink="http://www.w3.org/1999/xlink" version="1.1" id="Capa_1" x="0px" y="0px" width="512px" height="512px" viewBox="0 0 229.384 229.385" style="enable-background:new 0 0 229.384 229.385;" xml:space="preserve">
<g>
	<path d="M228.502,49.009c1.871-3.355,0.668-7.592-2.687-9.462c-3.355-1.871-7.592-0.668-9.463,2.687   c-11.723,21.021-27.562,37.03-47.122,47.647c6.318-5.173,12.271-11.119,16.172-17.451c12.076-19.6,12.364-58.577,12.371-60.226   c0.015-3.84-3.085-6.966-6.927-6.981c-0.01,0-0.02,0-0.029,0c-3.827,0-6.938,3.095-6.955,6.925   c-0.045,10.16-1.985,39.486-10.303,52.985c-7.308,11.861-24.925,22.899-33.993,28.04c-0.996-7.651-4-14.404-8.277-19.3   c3.515-6.401,5.63-14.916,5.63-24.388c0-2.134-1.729-3.865-3.865-3.865c-2.135,0-3.863,1.73-3.863,3.865   c0,7.687-1.595,14.304-3.978,19.234c-3.204-1.929-6.766-3.012-10.522-3.012c-3.756,0-7.318,1.083-10.522,3.012   c-2.382-4.93-3.976-11.548-3.976-19.234c0-2.134-1.731-3.865-3.865-3.865c-2.134,0-3.864,1.73-3.864,3.865   c0,9.472,2.115,17.986,5.629,24.388c-4.281,4.901-7.287,11.663-8.28,19.323c-10.315-5.851-27.144-16.952-33.989-28.063   C47.506,51.634,45.567,22.309,45.521,12.15c-0.016-3.832-3.126-6.928-6.956-6.928c-0.009,0-0.018,0-0.027,0   c-3.841,0.014-6.943,3.141-6.929,6.982c0.007,1.649,0.294,40.626,12.371,60.226c3.876,6.291,9.777,12.2,16.05,17.35   c-15.343-8.389-33.21-22.823-46.998-47.547c-1.871-3.354-6.107-4.558-9.463-2.687c-3.355,1.871-4.558,6.107-2.687,9.462   c17.498,31.378,41.082,47.634,57.784,55.746c3.238,1.573,6.344,2.905,9.273,4.04c-1.976,0.423-4.005,0.895-6.067,1.42   c-22.359,5.704-36.824,14.729-42.992,26.827c-1.745,3.422-0.385,7.61,3.037,9.355c1.012,0.518,2.091,0.761,3.154,0.761   c2.533,0,4.974-1.387,6.202-3.797c6.38-12.512,28.437-19.128,45.529-22.159c-3.925,2.118-8.17,4.987-12.316,8.881   c-7.91,7.426-13.883,17.041-17.754,28.578c-4.678,13.939-6.267,30.75-4.723,49.967c0.293,3.64,3.336,6.398,6.926,6.398   c0.187,0,0.375-0.007,0.564-0.021c3.829-0.309,6.684-3.662,6.376-7.49c-2.051-25.527,1.99-45.985,11.722-59.862   c-0.241,2.163-0.372,4.429-0.372,6.813c0,31.191,21.251,69.697,47.466,69.697c26.215,0,47.467-38.505,47.467-69.697   c0-2.797-0.174-5.437-0.504-7.931c10.313,13.888,14.638,34.757,12.53,60.979c-0.309,3.828,2.547,7.183,6.376,7.49   c0.189,0.015,0.378,0.021,0.564,0.021c3.589,0,6.633-2.759,6.926-6.398c1.544-19.217-0.045-36.027-4.723-49.967   c-3.871-11.537-9.845-21.152-17.754-28.578c-4.146-3.894-8.391-6.763-12.316-8.881c17.093,3.031,39.149,9.647,45.528,22.159   c1.229,2.41,3.67,3.797,6.203,3.797c1.062,0,2.142-0.243,3.154-0.761c3.422-1.745,4.781-5.934,3.036-9.355   c-6.168-12.098-20.633-21.123-42.991-26.827c-2.215-0.565-4.394-1.065-6.506-1.513c2.858-1.115,5.884-2.417,9.034-3.947   C187.421,96.644,211.004,80.387,228.502,49.009z M106.984,84.458c-3.088,5.099-4.219,10.987-4.623,15.029   c-0.181,1.804-1.789,3.119-3.593,2.939c-0.006,0-0.012-0.001-0.018-0.002c-1.794-0.189-3.101-1.793-2.921-3.591   c0.471-4.716,1.816-11.628,5.541-17.777c0.94-1.55,2.958-2.046,4.508-1.106C107.429,80.889,107.924,82.906,106.984,84.458z" fill="#006DF0"/>
</g>
<g>
</g>
<g>
</g>
<g>
</g>
<g>
</g>
<g>
</g>
<g>
</g>
<g>
</g>
<g>
</g>
<g>
</g>
<g>
</g>
<g>
</g>
<g>
</g>
<g>
</g>
<g>
</g>
<g>
</g>
</svg>
