<?xml version="1.0" encoding="iso-8859-1"?>
<!-- Generator: Adobe Illustrator 18.1.1, SVG Export Plug-In . SVG Version: 6.00 Build 0)  -->
<svg xmlns="http://www.w3.org/2000/svg" xmlns:xlink="http://www.w3.org/1999/xlink" version="1.1" id="Capa_1" x="0px" y="0px" viewBox="0 0 472.844 472.844" style="enable-background:new 0 0 472.844 472.844;" xml:space="preserve" width="512px" height="512px">
<g>
	<g>
		<path d="M260.029,0C164.234,0,84.322,57.331,65.919,133.512c-13.437,29.807-21.98,74.271-21.98,124.018    c0,25.914,2.382,50.292,6.503,72.019c-8.787,1.504-17.517,3.422-26.142,5.544c-15.265,3.747-11.169,44.967,4.105,41.22    c8.34-2.048,19.094-21.63,27.548-23.028c1.983,7.096,4.129,13.859,6.519,20.013c0.024,0.398,0,0.772,0.057,1.179    c4.081,27.198-27.385,83.001,11.599,90.235c15.371,2.853,42.309-19.403,26.865-22.264c-9.275-1.723-14.054-22.646-14.331-30.539    c6.064,5.202,12.534,8.104,19.257,8.104c6.316,0,12.412-2.512,18.159-7.121c4.113,7.373,6.722,40.22,13.046,46.739    c11.201,11.559,22.858,13.315,37.595,13.209c15.721-0.114,22.996-52.941,7.267-52.828c-12.087,0.089-21.874,1.683-29.986-8.624    c-4.747-6.031-8.202-12.502-11.404-19.175c6.194-10.982,11.591-24.825,15.908-40.797c14.867,3.081,24.67,22.914,39.554,25.914    c15.355,3.089,26.938-37.099,11.526-40.204c-15.274-3.073-30.507-6.308-45.764-9.47c0.862-4.69,1.601-9.559,2.284-14.485    c28.426,13.29,61.119,20.89,95.933,20.89c6.275,0,12.469-0.276,18.59-0.756c-0.496-0.358-0.984-0.74-1.471-1.105    c18.338-1.211,36.709-4.682,50.251-13.599c21.671-14.282,2.878-50.365-19.053-35.912c-15.452,10.185-33.571,11.567-51.568,11.258    c0,0,3.796-8.096,8.486-18.078c4.682-9.982-2.512-17.094-16.103-16.241c-5.023,0.317-10.096,0.577-14.615,0.732    c-4.276-23.817-2.309-49.966,7.056-75.498c10.909-29.742,30.003-53.657,52.901-69.304l5.747,13.412    c7.072,16.509,20.809,17.72,30.669,2.715l23.979-36.473c12.168-0.341,24.386,1.414,36.229,5.755    c0.333,0.122,0.642,0.301,0.975,0.423c-0.423,4.227-0.902,9.039-1.422,14.241c-1.609,16.127,9.372,23.971,24.532,17.517    l14.428-6.137c13.737,14.997,23.183,34.221,27.621,55.494c0.553-5.105,0.878-10.258,0.878-15.485    C458.139,74.783,369.44,0,260.029,0z M179.312,158.849c-12.258,0-23.053-6.3-29.466-15.867c-1.618-4.259-3.333-8.234-5.121-12.006    c-0.626-2.682-1.04-5.454-1.04-8.332c0-19.996,15.948-36.213,35.628-36.213s35.628,16.208,35.628,36.213    C214.94,142.64,198.992,158.849,179.312,158.849z" fill="#D80027"/>
	</g>
</g>
<g>
</g>
<g>
</g>
<g>
</g>
<g>
</g>
<g>
</g>
<g>
</g>
<g>
</g>
<g>
</g>
<g>
</g>
<g>
</g>
<g>
</g>
<g>
</g>
<g>
</g>
<g>
</g>
<g>
</g>
</svg>
