<?xml version="1.0"?>
<svg xmlns="http://www.w3.org/2000/svg" xmlns:xlink="http://www.w3.org/1999/xlink" version="1.1" id="Capa_1" x="0px" y="0px" width="512px" height="512px" viewBox="0 0 45.436 45.436" style="enable-background:new 0 0 45.436 45.436;" xml:space="preserve"> <g>
  <title>Layer 1</title>
  <g id="svg_1">
   <path id="svg_2"  d="m36.316,14.076594l4.424,-7.08c0.17,-0.271 0.25,-0.584 0.25,-0.905l0,-4.724c0,-0.943 -0.745,-1.684 -1.689,-1.684l-4.494,0c-0.943,0 -1.739,0.741 -1.739,1.684l0,2.536c0,0.387 -0.281,0.712 -0.668,0.712l-4.532,0c-0.387,0 -0.704,-0.325 -0.704,-0.712l0,-2.536c0,-0.943 -0.761,-1.684 -1.705,-1.684l-5.484,0c-0.943,0 -1.705,0.741 -1.705,1.684l0,2.536c0,0.387 -0.316,0.712 -0.703,0.712l-4.532,0c-0.387,0 -0.669,-0.325 -0.669,-0.712l0,-2.536c0.001,-0.943 -0.794,-1.684 -1.738,-1.684l-4.494,0c-0.943,0 -1.688,0.741 -1.688,1.684l0,4.724c0,0.32 0.08,0.634 0.25,0.905l4.423,7.08c0.17,0.271 0.259,0.584 0.259,0.904l0,19.307c0,0.6 -0.319,1.155 -0.833,1.464l-3.278,1.971c-0.514,0.309 -0.821,0.864 -0.821,1.465l0,4.246c0,0.944 0.744,1.686 1.688,1.686l33.167,0c0.942,0 1.688,-0.741 1.688,-1.686l0,-4.246c0,-0.601 -0.305,-1.156 -0.818,-1.465l-3.287,-1.97c-0.514,-0.31 -0.828,-0.864 -0.828,-1.464l0,-19.308c0.001,-0.319 0.09,-0.633 0.26,-0.904zm-9.153,10.033c0,0.695 -0.56,1.281 -1.255,1.281l-6.381,0c-0.695,0 -1.256,-0.586 -1.256,-1.281l0,-5.483c0,-2.417 1.957,-4.369 4.374,-4.369l0.145,0c2.418,0 4.373,1.952 4.373,4.369l0,5.483z"/>
  </g>

  <ellipse stroke="#000000" ry="17.560546" rx="18.984375" id="svg_18" cy="23.983628" cx="22.718003" stroke-linecap="null" stroke-linejoin="null" stroke-dasharray="null" stroke-width="3" fill="none"/>
  <line stroke="#000000" id="svg_19" y2="10.219956" x2="34.108627" y1="36.481674" x1="10.378159" stroke-linecap="null" stroke-linejoin="null" stroke-dasharray="null" stroke-width="3" fill="none"/>
 </g>
</svg>