<?xml version="1.0" encoding="iso-8859-1"?>
<!-- Generator: Adobe Illustrator 17.1.0, SVG Export Plug-In . SVG Version: 6.00 Build 0)  -->
<!DOCTYPE svg PUBLIC "-//W3C//DTD SVG 1.1//EN" "http://www.w3.org/Graphics/SVG/1.1/DTD/svg11.dtd">
<svg xmlns="http://www.w3.org/2000/svg" xmlns:xlink="http://www.w3.org/1999/xlink" version="1.1" id="Capa_1" x="0px" y="0px" viewBox="0 0 369.728 369.728" style="enable-background:new 0 0 369.728 369.728;" xml:space="preserve" width="512px" height="512px">
<path d="M369.016,240.962c-1.982-1.651-13.604-8.932-28.318-18.149c-21.381-13.395-53.554-33.55-55.862-36.658  c0.051-0.224,0.302-0.402,1.534-0.402c0.628,0,1.366,0.052,2.22,0.111c1.071,0.075,2.285,0.16,3.588,0.16  c1.722,0,3.254-0.151,4.686-0.462c1.621-0.353,2.052-1.345,2.165-1.904c0.783-3.888-10.221-13.857-32.708-29.631  c-11.753-8.245-16.994-9.599-20.462-10.495c-2.218-0.572-3.331-0.86-5.022-2.763c-2.172-2.443-10.525-8.399-20.196-15.296  c-11.589-8.264-24.724-17.63-29.655-22.713c-21.789-22.457-54.663-22.715-56.051-22.715c-0.582,0-1.032,0.015-1.404,0.039  c-4.27,0-36.225-12.942-40.845-15.075c-0.827-0.381-2.082-1.084-3.535-1.898c-5.356-3.001-13.451-7.536-20.434-8.002  c-4.785-0.318-12.451,1.678-19.147,3.431c-4.931,1.29-9.588,2.51-12.029,2.51c-0.337,0-0.619-0.023-0.837-0.07l-0.053-0.01  c-2.918-0.703-7.352-1.446-11.13-1.446c-1.152,0-2.18,0.074-3.057,0.211C17.398,60.535-0.232,74.362,0.002,77.347  c0.056,0.704,0.657,1.407,1.985,1.113c3.827-0.842,7.6-1.242,11.214-1.242c12.508,0,19.471,4.738,20.449,6.738  c-0.013,0-0.027,0-0.041,0c-6.262,0-19.425,1.521-25.129,2.743c-1.325,0.283-2.742,0.631-2.795,1.822  c-0.066,1.485,1.999,2.122,6.522,3.519c1.74,0.537,3.712,1.146,5.466,1.808c6.368,2.404,15.324,7.514,15.884,7.865  c2.551,1.854,3.977,6.791,5.628,12.507c3.561,12.323,8.438,29.202,29.065,34.702c18.888,5.037,33.491,22.67,42.415,36.574  c5.819,9.066,24.424,28.869,40.037,43.752c-0.004,2.406,0.066,5.926,0.196,11.127c0.173,6.914,0.37,14.754,0,17.067  c-0.531,3.315-8.24,13.198-12.702,17.506c-0.229-0.005-0.459-0.017-0.687-0.017c-1.549,0-2.982,0.13-4.24,0.376  c-6.329-4.207-13.989-6.656-21.033-6.656c-3.022,0-5.613,0.529-7.296,1.429c-3.477,1.863-3.711,5.94-3.468,6.908l0.235,0.965h0.78  l0.806-0.198l0.2-0.865c0.227-0.84,2.645-3.483,6.599-3.483c2.231,0,4.519,0.839,6.799,2.5c1.543,1.123,1.851,1.836,1.79,2.083  c-0.111,0.449-1.368,1.07-3.28,1.348c-4.883,0.713-9.731,1.854-15.33,8.16c-1.649,1.857-1.993,2.202-1.667,2.927l0.31,0.527h0.647  c0.414,0,0.747-0.11,1.848-0.75c2.436-1.415,7.503-4.277,13.139-4.63c1.038-0.065,2.051-0.098,3.011-0.098  c5.162,0,8.325,0.921,11.383,1.813c1.112,0.324,2.202,0.637,3.343,0.896c-2.153,1.169-4.379,2.895-6.74,5.554  c-1.649,1.857-1.993,2.123-1.667,2.847l0.31,0.368h0.647c0.414,0,0.747,0.05,1.848-0.591c2.436-1.415,7.504-4.117,13.14-4.47  c1.039-0.065,2.053-0.099,3.013-0.099c5.162,0,8.323,0.922,11.381,1.813c2.662,0.776,5.176,1.509,8.653,1.509  c2.666,0,5.672-0.443,9.189-1.354c6.413-1.661,13.962,0.347,21.201,5.539l0.179,0.128c0.287,0.203,0.562,0.303,0.841,0.303  l0.579-0.037l0.3-0.397c0.242-0.319,0.294-0.73,0.156-1.221c-0.444-1.569-2.392-5.008-5.728-7.551  c-5.32-4.058-7.794-4.529-9.601-4.874c-0.968-0.185-1.645-0.313-2.573-0.968c0.618-1.183,3.475-4.214,5.809-6.691  c5.769-6.123,9.552-10.327,9.574-12.878c0.017-1.956,2.153-11.066,3.869-18.387c0.483-2.061,0.881-3.758,1.208-5.169  c8.888-0.849,16.551-2.391,20.494-3.186l0.832-0.168c2.198-0.439,4.23-0.976,6.023-1.448c2.888-0.762,5.382-1.419,7.515-1.419  c1.864,0,3.349,0.515,4.674,1.619c3.352,2.793,13.476,9.055,23.267,15.11c4.127,2.553,8.024,4.964,11.438,7.125  c6.972,4.416,24.304,23.433,36.959,37.317c12.478,13.691,13.535,14.688,14.456,14.688l0.532-0.019l0.3-0.385  c0.122-0.156,0.308-0.492,0.185-0.985c-0.021-0.084-0.034-0.152-0.042-0.209c0.729,0.054,2.686,0.687,7.862,4.014  c1.337,0.859,1.913,1.036,2.366,1.036c0.475,0,0.888-0.235,1.104-0.63c0.551-1.004-0.204-2.26-3.489-7.416  c-1.599-2.51-3.589-5.634-5.57-9.1c-3.031-5.306-15.467-22.157-28.632-39.998c-13.272-17.985-26.986-36.569-29.678-41.557  c5.662,0.415,32.071,13.312,51.438,22.771c18.631,9.098,26.389,12.804,28.087,12.805h0.001c0.495,0,0.785-0.223,0.94-0.409  c0.222-0.267,0.315-0.609,0.263-0.965c-0.226-1.527-4.014-4.233-16.927-12.745c-4.724-3.113-10.321-6.803-13.061-8.926  c4.381,1.085,13.837,4.165,22.373,6.946c14.682,4.782,24.486,7.918,26.904,7.918c0.897,0,1.241-0.431,1.372-0.792  C369.854,242.017,369.638,241.481,369.016,240.962z M176.174,246.693c0.173,6.913,0.37,14.747,0,17.059  c-0.651,4.066-12.092,17.993-15.107,19.422c-4.131-3.145-5.855-3.901-6.914-4.108c-0.676-0.337-1.363-0.649-2.055-0.948  c0.823-1.311,3.456-4.112,5.652-6.442c5.769-6.123,9.551-10.327,9.574-12.877c0.017-1.977,2.285-10.954,3.941-17.508  c0.036-0.144,0.07-0.279,0.106-0.419c1.494,0.298,3.053,0.547,4.685,0.741C176.086,243.1,176.126,244.78,176.174,246.693z" fill="#D80027"/>
<g>
</g>
<g>
</g>
<g>
</g>
<g>
</g>
<g>
</g>
<g>
</g>
<g>
</g>
<g>
</g>
<g>
</g>
<g>
</g>
<g>
</g>
<g>
</g>
<g>
</g>
<g>
</g>
<g>
</g>
</svg>
